<svg xmlns="http://www.w3.org/2000/svg" xmlns:xlink="http://www.w3.org/1999/xlink" viewBox="0 0 100 125" version="1.1" x="0px" y="0px"><title>2.4</title><desc>Created with Sketch.</desc><g stroke="none" stroke-width="1" fill="none" fill-rule="evenodd"><g><circle fill="#000000" cx="50" cy="50" r="16"/><g transform="translate(48.000000, 18.000000)" stroke="#000000" stroke-width="4"><path d="M7,5 L-3,5" transform="translate(2.000000, 5.000000) rotate(90.000000) translate(-2.000000, -5.000000) "/><path d="M7,59 L-3,59" transform="translate(2.000000, 59.000000) rotate(90.000000) translate(-2.000000, -59.000000) "/></g><g transform="translate(50.000000, 50.000000) rotate(90.000000) translate(-50.000000, -50.000000) translate(48.000000, 18.000000)" stroke="#000000" stroke-width="4"><path d="M7,5 L-3,5" transform="translate(2.000000, 5.000000) rotate(90.000000) translate(-2.000000, -5.000000) "/><path d="M7,59 L-3,59" transform="translate(2.000000, 59.000000) rotate(90.000000) translate(-2.000000, -59.000000) "/></g><g transform="translate(50.000000, 50.000000) rotate(45.000000) translate(-50.000000, -50.000000) translate(48.000000, 18.000000)" stroke="#000000" stroke-width="4"><path d="M7,5 L-3,5" transform="translate(2.000000, 5.000000) rotate(90.000000) translate(-2.000000, -5.000000) "/><path d="M7,59 L-3,59" transform="translate(2.000000, 59.000000) rotate(90.000000) translate(-2.000000, -59.000000) "/></g><g transform="translate(50.000000, 50.000000) rotate(135.000000) translate(-50.000000, -50.000000) translate(48.000000, 18.000000)" stroke="#000000" stroke-width="4"><path d="M7,5 L-3,5" transform="translate(2.000000, 5.000000) rotate(90.000000) translate(-2.000000, -5.000000) "/><path d="M7,59 L-3,59" transform="translate(2.000000, 59.000000) rotate(90.000000) translate(-2.000000, -59.000000) "/></g></g></g><text x="0" y="115" fill="#000000" font-size="5px" font-weight="bold" font-family="'Helvetica Neue', Helvetica, Arial-Unicode, Arial, Sans-serif">Created by Landan Lloyd</text><text x="0" y="120" fill="#000000" font-size="5px" font-weight="bold" font-family="'Helvetica Neue', Helvetica, Arial-Unicode, Arial, Sans-serif">from the Noun Project</text></svg>