<svg xmlns="http://www.w3.org/2000/svg" xmlns:xlink="http://www.w3.org/1999/xlink" xml:space="preserve" version="1.1" style="shape-rendering:geometricPrecision;text-rendering:geometricPrecision;image-rendering:optimizeQuality;" viewBox="0 0 2540 3175" x="0px" y="0px" fill-rule="evenodd" clip-rule="evenodd"><defs><style type="text/css">
   
    .fil0 {fill:black;fill-rule:nonzero}
   
  </style></defs><g><path class="fil0" d="M1044 404c63,-19 126,-31 191,-36 12,-1 24,1 34,8 23,16 29,48 13,71 -88,126 -138,274 -144,426 -6,147 28,298 107,435 79,137 192,241 323,309 134,71 287,102 440,89 11,-1 23,2 33,8 23,16 29,47 14,71 -38,56 -79,105 -127,149 -48,43 -102,81 -164,117 -216,125 -462,151 -685,91 -224,-60 -425,-205 -549,-421l0 -1c-125,-216 -151,-462 -91,-685 60,-224 205,-425 421,-549l1 0c60,-35 121,-62 183,-82z"/><path class="fil0" d="M1663 997l39 127 126 38c14,4 21,19 17,32 -2,8 -9,14 -17,17l-126 39 -39 126c-4,13 -18,21 -31,17 -9,-3 -15,-9 -17,-17l-39 -126 -126 -39c-14,-4 -21,-19 -17,-32 3,-8 9,-14 17,-17l126 -38 39 -127c4,-13 18,-21 32,-17 8,3 14,9 16,17z"/><path class="fil0" d="M1930 447l43 139 139 43c15,4 23,20 18,35 -2,9 -10,16 -18,18l-139 43 -43 139c-5,15 -20,23 -35,19 -9,-3 -16,-10 -19,-19l-42 -139 -140 -43c-15,-4 -23,-20 -18,-35 3,-9 10,-16 18,-18l140 -43 42 -139c5,-15 21,-23 35,-19 9,3 16,10 19,19z"/></g><text x="0" y="2555" fill="#000000" font-size="5px" font-weight="bold" font-family="'Helvetica Neue', Helvetica, Arial-Unicode, Arial, Sans-serif">Created by fibo junior</text><text x="0" y="2560" fill="#000000" font-size="5px" font-weight="bold" font-family="'Helvetica Neue', Helvetica, Arial-Unicode, Arial, Sans-serif">from the Noun Project</text></svg>