<svg width="441" height="338" viewBox="0 0 441 338" fill="none" xmlns="http://www.w3.org/2000/svg">
<g clip-path="url(#clip0)">
<path d="M101.544 233.916L135.688 180.357L59.222 131.855L19.733 193.799L82.9799 233.916H101.544Z" fill="#F0F0F0"/>
<path d="M149.929 250.624H65.3537V233.642H149.929V250.624ZM66.452 249.528H148.831V234.737H66.452V249.528Z" fill="#3F3D56"/>
<path d="M139.494 247.611C142.527 247.611 144.986 245.158 144.986 242.133C144.986 239.107 142.527 236.655 139.494 236.655C136.461 236.655 134.002 239.107 134.002 242.133C134.002 245.158 136.461 247.611 139.494 247.611Z" fill="#1D3557"/>
<path d="M124.117 247.611C127.15 247.611 129.609 245.158 129.609 242.133C129.609 239.107 127.15 236.655 124.117 236.655C121.084 236.655 118.625 239.107 118.625 242.133C118.625 245.158 121.084 247.611 124.117 247.611Z" fill="#1D3557"/>
<path d="M108.74 247.611C111.773 247.611 114.232 245.158 114.232 242.133C114.232 239.107 111.773 236.655 108.74 236.655C105.707 236.655 103.248 239.107 103.248 242.133C103.248 245.158 105.707 247.611 108.74 247.611Z" fill="#1D3557"/>
<path d="M93.3624 247.611C96.3955 247.611 98.8543 245.158 98.8543 242.133C98.8543 239.107 96.3955 236.655 93.3624 236.655C90.3293 236.655 87.8705 239.107 87.8705 242.133C87.8705 245.158 90.3293 247.611 93.3624 247.611Z" fill="#1D3557"/>
<path d="M77.985 247.611C81.0181 247.611 83.477 245.158 83.477 242.133C83.477 239.107 81.0181 236.655 77.985 236.655C74.9519 236.655 72.4931 239.107 72.4931 242.133C72.4931 245.158 74.9519 247.611 77.985 247.611Z" fill="#1D3557"/>
<path d="M250.431 61.9028V20.269H271.3V0H169.151V101.893H256.472V91.9307C256.472 90.0737 256.839 88.2348 257.551 86.519C258.264 84.8033 259.308 83.2444 260.624 81.9312C261.941 80.6181 263.504 79.5764 265.224 78.8658C266.944 78.1551 268.787 77.7893 270.649 77.7893H271.3V61.9028H250.431Z" fill="#F0F0F0"/>
<path d="M363.564 262.95H295.464V277.193H363.564V262.95Z" fill="#1D3557"/>
<path d="M378.392 192.83H278.44V205.977H378.392V192.83Z" fill="#F0F0F0"/>
<path d="M427.27 336.904H0V338H427.27V336.904Z" fill="#3F3D56"/>
<path d="M395.519 338H270.649C266.745 337.996 263.002 336.446 260.241 333.693C257.48 330.939 255.927 327.205 255.923 323.311V91.9308C255.927 88.0363 257.48 84.3026 260.241 81.5488C263.002 78.795 266.745 77.2459 270.649 77.2415H395.519C399.423 77.2459 403.166 78.795 405.927 81.5488C408.688 84.3026 410.241 88.0363 410.245 91.9308V323.311C410.241 327.205 408.688 330.939 405.927 333.693C403.166 336.446 399.423 337.996 395.519 338ZM270.649 78.3371C267.036 78.3412 263.572 79.7747 261.017 82.3231C258.462 84.8715 257.025 88.3268 257.021 91.9308V323.311C257.025 326.915 258.462 330.37 261.017 332.918C263.572 335.467 267.036 336.9 270.649 336.904H395.519C399.132 336.9 402.596 335.467 405.151 332.918C407.706 330.37 409.143 326.915 409.147 323.311V91.9308C409.143 88.3268 407.706 84.8715 405.151 82.3231C402.596 79.7747 399.132 78.3412 395.519 78.3371H270.649Z" fill="#3F3D56"/>
<path d="M318.256 88.1977C317.604 88.1977 316.967 88.005 316.425 87.6438C315.883 87.2826 315.461 86.7693 315.212 86.1687C314.962 85.5681 314.897 84.9072 315.024 84.2696C315.151 83.632 315.465 83.0464 315.926 82.5867C316.387 82.127 316.974 81.814 317.613 81.6871C318.252 81.5603 318.915 81.6254 319.517 81.8742C320.119 82.123 320.634 82.5442 320.996 83.0848C321.358 83.6253 321.551 84.2608 321.551 84.9109C321.55 85.7823 321.203 86.6178 320.585 87.234C319.967 87.8502 319.13 88.1968 318.256 88.1977ZM318.256 82.7196C317.821 82.7196 317.397 82.8481 317.035 83.0889C316.674 83.3297 316.393 83.6719 316.226 84.0723C316.06 84.4727 316.017 84.9133 316.101 85.3384C316.186 85.7634 316.395 86.1539 316.703 86.4603C317.01 86.7668 317.401 86.9754 317.827 87.06C318.253 87.1445 318.695 87.1012 319.097 86.9353C319.498 86.7695 319.841 86.4886 320.082 86.1283C320.324 85.7679 320.453 85.3442 320.453 84.9109C320.452 84.3299 320.22 83.7729 319.809 83.3621C319.397 82.9513 318.838 82.7202 318.256 82.7196Z" fill="#3F3D56"/>
<path d="M350.658 84.363H326.494V85.4587H350.658V84.363Z" fill="#3F3D56"/>
<path d="M400.36 93.128V136.953C388.708 136.952 377.533 132.335 369.294 124.116C361.054 115.898 356.425 104.751 356.425 93.128H400.36Z" fill="#1D3557"/>
<path d="M400.909 323.209H265.259V92.5802H400.909V323.209ZM266.357 322.113H399.811V93.6758H266.357V322.113Z" fill="#3F3D56"/>
<path opacity="0.1" d="M368.507 134.214C376.696 134.214 383.335 127.592 383.335 119.423C383.335 111.254 376.696 104.632 368.507 104.632C360.317 104.632 353.679 111.254 353.679 119.423C353.679 127.592 360.317 134.214 368.507 134.214Z" fill="black"/>
<path d="M366.31 135.857C374.499 135.857 381.138 129.235 381.138 121.066C381.138 112.898 374.499 106.276 366.31 106.276C358.121 106.276 351.482 112.898 351.482 121.066C351.482 129.235 358.121 135.857 366.31 135.857Z" fill="#1D3557"/>
<path d="M292.169 101.893H271.3V109.562H292.169V101.893Z" fill="#3F3D56"/>
<path d="M303.702 174.752H282.833V182.421H303.702V174.752Z" fill="#3F3D56"/>
<path d="M383.884 203.238H282.833V188.995H383.884V203.238ZM283.932 202.143H382.786V190.091H283.932V202.143Z" fill="#3F3D56"/>
<path d="M378.392 234.464H278.44V247.611H378.392V234.464Z" fill="#F0F0F0"/>
<path d="M303.702 216.386H282.833V224.055H303.702V216.386Z" fill="#3F3D56"/>
<path d="M383.884 244.872H282.833V230.629H383.884V244.872ZM283.932 243.776H382.786V231.724H283.932V243.776Z" fill="#3F3D56"/>
<path d="M367.958 273.906H298.76V258.567H367.958V273.906ZM299.858 272.81H366.859V259.663H299.858V272.81Z" fill="#3F3D56"/>
<path d="M381.138 197.76C381.138 198.888 380.789 199.988 380.139 200.911C379.489 201.833 378.569 202.533 377.505 202.915C376.441 203.297 375.285 203.342 374.194 203.043C373.104 202.745 372.132 202.119 371.412 201.25L371.407 201.244C370.882 200.609 370.507 199.864 370.31 199.064C370.114 198.265 370.1 197.431 370.271 196.626C370.442 195.82 370.793 195.064 371.297 194.412C371.801 193.761 372.447 193.231 373.185 192.862C373.922 192.493 374.734 192.295 375.559 192.283C376.385 192.27 377.202 192.443 377.951 192.789C378.7 193.135 379.361 193.645 379.885 194.281C380.41 194.916 380.783 195.662 380.979 196.462C380.979 196.463 380.979 196.463 380.979 196.464C380.98 196.465 380.98 196.465 380.981 196.466C380.981 196.466 380.982 196.467 380.982 196.467C380.983 196.467 380.984 196.467 380.984 196.467C381.086 196.891 381.138 197.325 381.138 197.76Z" fill="#1D3557"/>
<path opacity="0.1" d="M381.138 197.76C381.138 198.888 380.789 199.988 380.139 200.911C379.489 201.833 378.569 202.533 377.505 202.915C376.441 203.297 375.285 203.342 374.194 203.043C373.104 202.745 372.132 202.119 371.412 201.25L371.407 201.244C371.305 200.821 371.254 200.387 371.253 199.951C371.253 198.824 371.602 197.723 372.252 196.801C372.903 195.878 373.822 195.178 374.886 194.797C375.95 194.415 377.106 194.37 378.197 194.668C379.287 194.966 380.259 195.592 380.979 196.462C380.979 196.463 380.979 196.463 380.979 196.464C380.98 196.465 380.98 196.465 380.981 196.466C380.981 196.466 380.982 196.467 380.982 196.467C380.983 196.467 380.984 196.467 380.984 196.467C381.086 196.891 381.138 197.325 381.138 197.76Z" fill="black"/>
<path d="M377.843 206.525C380.876 206.525 383.335 204.073 383.335 201.047C383.335 198.022 380.876 195.569 377.843 195.569C374.81 195.569 372.351 198.022 372.351 201.047C372.351 204.073 374.81 206.525 377.843 206.525Z" fill="#1D3557"/>
<path d="M381.138 239.394C381.138 240.522 380.789 241.622 380.139 242.544C379.489 243.467 378.569 244.167 377.505 244.549C376.441 244.93 375.285 244.975 374.194 244.677C373.104 244.379 372.132 243.753 371.412 242.883L371.407 242.878C370.882 242.243 370.507 241.498 370.31 240.698C370.114 239.898 370.1 239.065 370.271 238.26C370.442 237.454 370.793 236.698 371.297 236.046C371.801 235.394 372.447 234.864 373.185 234.496C373.922 234.127 374.734 233.929 375.559 233.916C376.385 233.904 377.202 234.077 377.951 234.423C378.7 234.769 379.361 235.278 379.885 235.914C380.41 236.55 380.783 237.296 380.979 238.096C380.979 238.096 380.979 238.097 380.979 238.098C380.98 238.098 380.98 238.099 380.981 238.099C380.981 238.1 380.982 238.1 380.982 238.101C380.983 238.101 380.984 238.101 380.984 238.101C381.086 238.525 381.138 238.958 381.138 239.394Z" fill="#1D3557"/>
<path opacity="0.1" d="M381.138 239.394C381.138 240.522 380.789 241.622 380.139 242.544C379.489 243.467 378.569 244.167 377.505 244.549C376.441 244.93 375.285 244.975 374.194 244.677C373.104 244.379 372.132 243.753 371.412 242.883L371.407 242.878C371.305 242.454 371.254 242.021 371.253 241.585C371.253 240.457 371.602 239.357 372.252 238.434C372.903 237.512 373.822 236.812 374.886 236.43C375.95 236.049 377.106 236.004 378.197 236.302C379.287 236.6 380.259 237.226 380.979 238.096C380.979 238.096 380.979 238.097 380.979 238.098C380.98 238.098 380.98 238.099 380.981 238.099C380.981 238.1 380.982 238.1 380.982 238.101C380.983 238.101 380.984 238.101 380.984 238.101C381.086 238.525 381.138 238.958 381.138 239.394Z" fill="black"/>
<path d="M377.843 248.159C380.876 248.159 383.335 245.706 383.335 242.681C383.335 239.655 380.876 237.203 377.843 237.203C374.81 237.203 372.351 239.655 372.351 242.681C372.351 245.706 374.81 248.159 377.843 248.159Z" fill="#1D3557"/>
<path d="M285.579 26.295H257.021V54.7812H285.579V26.295Z" fill="#F0F0F0"/>
<path d="M368.507 47.1118C367.203 47.1118 365.929 46.7263 364.845 46.004C363.762 45.2816 362.917 44.2549 362.418 43.0537C361.919 41.8526 361.789 40.5308 362.043 39.2556C362.297 37.9804 362.925 36.8091 363.847 35.8898C364.768 34.9704 365.943 34.3443 367.221 34.0907C368.5 33.837 369.825 33.9672 371.029 34.4647C372.233 34.9623 373.262 35.8049 373.986 36.8859C374.711 37.967 375.097 39.2379 375.097 40.5381C375.095 42.281 374.4 43.9519 373.165 45.1843C371.929 46.4167 370.254 47.1099 368.507 47.1118ZM368.507 35.06C367.421 35.06 366.359 35.3813 365.456 35.9832C364.553 36.5851 363.849 37.4407 363.433 38.4417C363.017 39.4427 362.909 40.5442 363.12 41.6068C363.332 42.6695 363.855 43.6456 364.623 44.4117C365.392 45.1778 366.37 45.6996 367.435 45.9109C368.501 46.1223 369.605 46.0138 370.608 45.5992C371.612 45.1846 372.47 44.4824 373.073 43.5816C373.677 42.6807 373.999 41.6216 373.999 40.5381C373.997 39.0857 373.418 37.6933 372.388 36.6663C371.359 35.6393 369.963 35.0616 368.507 35.06Z" fill="#3F3D56"/>
<path d="M223.521 138.596H209.242V124.353H223.521V138.596ZM210.34 137.501H222.422V125.449H210.34V137.501Z" fill="#3F3D56"/>
<path d="M441 244.872H426.721V230.629H441V244.872ZM427.819 243.776H439.902V231.724H427.819V243.776Z" fill="#3F3D56"/>
<path d="M159.267 149.37L161.717 150.686L170.055 155.169L183.516 162.403L191.36 147.885C192.099 146.521 192.561 145.025 192.719 143.483C192.878 141.941 192.73 140.382 192.284 138.897C191.838 137.412 191.102 136.029 190.12 134.827C189.138 133.626 187.927 132.63 186.558 131.895C183.633 130.319 180.281 129.711 176.987 130.157C173.692 130.602 170.624 132.08 168.225 134.376L168.221 134.381C167.041 135.511 166.045 136.819 165.269 138.256L159.267 149.37Z" fill="#2F2E41"/>
<path d="M196.006 297.427L194.362 315.472L188.194 316.292L184.083 295.787L196.006 297.427Z" fill="#FFB8B8"/>
<path d="M186.55 316.292C186.55 316.292 194.362 312.191 196.006 315.472C196.006 315.472 194.773 325.314 199.706 326.545C204.64 327.775 206.696 336.387 199.706 337.208C192.717 338.028 188.195 335.567 185.728 335.567C183.261 335.567 185.728 326.955 185.728 326.955L186.55 316.292Z" fill="#2F2E41"/>
<path d="M146.258 297.427L147.903 315.472L154.07 316.292L158.181 295.787L146.258 297.427Z" fill="#FFB8B8"/>
<path d="M155.714 316.292C155.714 316.292 147.903 312.191 146.258 315.472C146.258 315.472 147.492 325.314 142.558 326.545C137.624 327.775 135.569 336.387 142.558 337.208C149.547 338.028 154.07 335.567 156.537 335.567C159.004 335.567 156.537 326.955 156.537 326.955L155.714 316.292Z" fill="#2F2E41"/>
<path d="M179.972 152.659C185.875 152.659 190.661 147.885 190.661 141.996C190.661 136.107 185.875 131.333 179.972 131.333C174.068 131.333 169.282 136.107 169.282 141.996C169.282 147.885 174.068 152.659 179.972 152.659Z" fill="#FFB8B8"/>
<path d="M145.847 162.912L154.481 176.445L164.76 175.625L181.616 176.855C181.616 176.855 183.207 173.681 184.507 170.593C185.218 169.051 185.765 167.439 186.139 165.783C186.55 162.912 180.794 160.041 180.794 160.041C180.794 160.041 180.568 160 180.19 159.91C179.688 159.791 178.915 159.594 178.068 159.307C176.156 158.659 173.858 157.56 173.393 155.94C172.571 153.069 178.738 148.968 178.738 148.968L171.338 141.996C171.338 141.996 164.764 151.105 156.779 153.18C156.316 153.302 155.847 153.398 155.373 153.467C155.349 153.471 155.328 153.475 155.303 153.479C146.669 154.71 145.847 162.912 145.847 162.912Z" fill="#FFB8B8"/>
<path d="M150.37 159.221L145.847 162.912C145.847 162.912 142.147 180.546 143.38 185.468C144.614 190.389 142.969 194.9 142.969 195.72C142.969 196.541 139.269 227.299 139.269 227.299C139.269 227.299 131.868 243.703 139.68 242.063C147.492 240.422 144.614 224.018 144.614 224.018L154.07 195.31V171.114L150.37 159.221Z" fill="#FFB8B8"/>
<path d="M182.85 162.502L186.139 164.962L187.783 199.411L200.118 228.939C200.118 228.939 209.163 243.293 203.407 243.703C197.651 244.113 193.95 228.939 193.95 228.939L182.85 200.642L181.205 173.164L182.85 162.502Z" fill="#FFB8B8"/>
<path d="M162.293 164.962C162.293 164.962 170.515 170.704 183.672 168.653C183.672 168.653 187.372 176.035 185.317 180.136C183.261 184.237 187.783 194.08 188.606 195.31C189.428 196.541 198.884 221.967 202.173 249.444C205.462 276.922 214.507 295.787 206.696 298.247C198.884 300.708 182.85 303.579 181.205 301.118C179.561 298.657 177.094 237.551 177.094 237.551L172.571 260.927C172.571 260.927 178.738 300.708 174.216 301.528C169.693 302.348 141.325 299.888 142.147 294.966C142.969 290.045 151.192 264.208 151.192 264.208C151.192 264.208 150.781 212.535 159.004 202.692C159.004 202.692 162.293 197.361 157.77 190.389C153.248 183.417 153.659 172.344 153.659 172.344C153.659 172.344 156.948 172.344 162.293 164.962Z" fill="#2F2E41"/>
<path d="M155.373 153.467L162.293 168.653L163.937 167.833L156.779 153.18L155.373 153.467Z" fill="#2F2E41"/>
<path d="M178.068 159.307L183.261 170.704L184.507 170.593L184.083 168.653L180.19 159.91C179.688 159.791 178.915 159.594 178.068 159.307Z" fill="#2F2E41"/>
<path d="M161.717 150.686C162.112 151.955 162.874 153.079 163.907 153.918C164.94 154.757 166.198 155.273 167.524 155.401C168.85 155.53 170.184 155.266 171.36 154.642C172.535 154.017 173.5 153.061 174.134 151.892C168.933 145.109 173.393 140.848 181.842 137.624C182.479 136.446 182.749 135.106 182.62 133.774C182.49 132.442 181.966 131.178 181.115 130.144C178.786 129.847 176.42 130.073 174.19 130.805C171.96 131.537 169.922 132.758 168.225 134.376L168.221 134.381L162.219 145.486C161.791 146.276 161.527 147.143 161.44 148.036C161.354 148.929 161.448 149.83 161.717 150.686Z" fill="#2F2E41"/>
<path d="M173.599 145.687C174.394 145.687 175.038 144.586 175.038 143.227C175.038 141.868 174.394 140.766 173.599 140.766C172.804 140.766 172.16 141.868 172.16 143.227C172.16 144.586 172.804 145.687 173.599 145.687Z" fill="#FFB8B8"/>
<path d="M177.887 139.212L190.246 144.797L192.512 139.81C192.121 137.988 191.304 136.283 190.127 134.836L181.62 130.993L177.887 139.212Z" fill="#2F2E41"/>
<path d="M207.594 249.254C210.627 249.254 213.086 246.802 213.086 243.776C213.086 240.751 210.627 238.298 207.594 238.298C204.561 238.298 202.102 240.751 202.102 243.776C202.102 246.802 204.561 249.254 207.594 249.254Z" fill="#1D3557"/>
<path d="M31.28 281.82C33.2622 281.82 34.8691 280.217 34.8691 278.24C34.8691 276.263 33.2622 274.66 31.28 274.66C29.2977 274.66 27.6908 276.263 27.6908 278.24C27.6908 280.217 29.2977 281.82 31.28 281.82Z" fill="#FF6584"/>
<path d="M49.4135 296.899H48.3151V337.662H49.4135V296.899Z" fill="#3F3D56"/>
<path d="M48.8644 302.664C52.0561 302.664 54.6434 300.083 54.6434 296.899C54.6434 293.715 52.0561 291.134 48.8644 291.134C45.6727 291.134 43.0854 293.715 43.0854 296.899C43.0854 300.083 45.6727 302.664 48.8644 302.664Z" fill="#3F3D56"/>
<path d="M48.8644 322.022C48.8644 322.022 48.0388 304.311 31.1145 306.369L48.8644 322.022Z" fill="#3F3D56"/>
</g>
<defs>
<clipPath id="clip0">
<rect width="441" height="338" fill="white"/>
</clipPath>
</defs>
</svg>
